<?xml version="1.0" standalone="no"?>
<!DOCTYPE svg PUBLIC "-//W3C//DTD SVG 20010904//EN"
 "http://www.w3.org/TR/2001/REC-SVG-20010904/DTD/svg10.dtd">
<svg version="1.0" xmlns="http://www.w3.org/2000/svg"
 width="512.000000pt" height="512.000000pt" viewBox="0 0 512.000000 512.000000"
 preserveAspectRatio="xMidYMid meet">
<metadata>
Created by potrace 1.14, written by Peter Selinger 2001-2017
</metadata>
<g transform="translate(0.000000,512.000000) scale(0.100000,-0.100000)"
fill="#000000" stroke="none">
<path d="M3137 4490 c-57 -22 -103 -70 -118 -125 -6 -23 -9 -89 -6 -162 l4
-123 -51 -1 c-28 0 -105 -1 -171 -1 -133 -1 -195 -14 -258 -52 -79 -48 -126
-102 -160 -188 -20 -51 -21 -69 -23 -541 0 -268 -4 -490 -7 -494 -4 -3 -95 -6
-203 -6 -202 0 -213 2 -214 41 0 23 -47 106 -79 139 -91 95 -166 116 -394 111
-164 -3 -175 -5 -235 -32 -79 -36 -152 -114 -181 -191 -12 -31 -21 -59 -21
-64 0 -4 -6 -8 -12 -8 -30 0 -115 -13 -145 -22 -18 -5 -33 -8 -33 -6 0 2 -30
-7 -67 -19 -320 -109 -560 -333 -683 -635 -88 -216 -100 -450 -35 -714 20 -85
97 -239 165 -334 64 -89 208 -222 303 -281 125 -78 269 -133 416 -158 20 -4
740 -8 1602 -9 1664 -2 1640 -3 1809 45 362 103 669 429 749 795 5 28 14 68
19 91 10 45 8 292 -3 339 -3 17 -10 49 -16 73 -65 294 -280 568 -563 718 -109
57 -268 104 -395 117 -27 2 -35 8 -38 28 -5 36 -49 120 -81 154 -42 45 -101
82 -160 99 -73 21 -352 21 -425 -1 -112 -32 -197 -114 -232 -221 -10 -28 -21
-52 -26 -53 -5 0 -94 -1 -199 -1 -104 0 -197 1 -205 1 -13 1 -15 57 -15 441
l0 440 38 1 c20 0 98 0 172 1 193 0 270 25 356 116 79 82 98 150 95 332 -3
228 -7 250 -55 307 -52 62 -140 83 -219 53z m-1992 -2221 c37 -12 63 -34 95
-79 23 -32 25 -46 28 -162 l4 -126 126 -4 c114 -3 131 -6 163 -28 121 -81 121
-249 0 -330 -32 -22 -49 -25 -163 -28 l-126 -4 -4 -126 c-3 -106 -7 -132 -23
-157 -93 -141 -286 -126 -349 27 -11 26 -16 71 -16 148 l0 110 -110 0 c-77 0
-122 5 -148 16 -153 63 -168 256 -27 349 25 16 51 20 157 23 l126 4 4 126 c3
116 5 130 28 162 35 50 59 68 110 84 46 14 72 13 125 -5z m2941 -83 c209 -67
354 -262 354 -476 0 -80 -3 -100 -28 -171 -89 -253 -368 -393 -624 -315 -216
67 -366 280 -353 503 19 332 340 558 651 459z"/>
</g>
</svg>
